<svg width="32" height="32" viewBox="0 0 32 32" fill="none" xmlns="http://www.w3.org/2000/svg">
<path d="M29.16 15.3332C28.3067 13.8532 23.6133 6.42658 15.64 6.66658C8.26668 6.85324 4.00001 13.3332 2.84001 15.3332C2.72299 15.5359 2.66138 15.7659 2.66138 15.9999C2.66138 16.234 2.72299 16.4639 2.84001 16.6666C3.68001 18.1199 8.17334 25.3332 16.0267 25.3332H16.36C23.7333 25.1466 28.0133 18.6666 29.16 16.6666C29.277 16.4639 29.3386 16.234 29.3386 15.9999C29.3386 15.7659 29.277 15.5359 29.16 15.3332ZM16.2933 22.6666C10.5467 22.7999 6.80001 17.8799 5.62668 15.9999C6.96001 13.8532 10.44 9.46658 15.7733 9.33324C21.4933 9.18658 25.2533 14.1199 26.44 15.9999C25.0667 18.1466 21.6267 22.5332 16.2933 22.6666Z" fill="#1D1D1B"/>
<path d="M15.9999 11.3333C15.0769 11.3333 14.1747 11.6069 13.4073 12.1197C12.6398 12.6325 12.0417 13.3613 11.6885 14.2141C11.3353 15.0668 11.2429 16.0051 11.4229 16.9103C11.603 17.8156 12.0474 18.6471 12.7001 19.2998C13.3527 19.9524 14.1843 20.3969 15.0895 20.5769C15.9947 20.757 16.9331 20.6646 17.7858 20.3114C18.6385 19.9581 19.3673 19.36 19.8801 18.5926C20.3929 17.8252 20.6666 16.9229 20.6666 15.9999C20.6666 14.7622 20.1749 13.5753 19.2998 12.7001C18.4246 11.8249 17.2376 11.3333 15.9999 11.3333ZM15.9999 17.9999C15.6044 17.9999 15.2177 17.8826 14.8888 17.6629C14.5599 17.4431 14.3035 17.1307 14.1522 16.7653C14.0008 16.3998 13.9612 15.9977 14.0384 15.6097C14.1155 15.2218 14.306 14.8654 14.5857 14.5857C14.8654 14.306 15.2218 14.1155 15.6097 14.0383C15.9977 13.9612 16.3998 14.0008 16.7653 14.1522C17.1307 14.3035 17.4431 14.5599 17.6629 14.8888C17.8826 15.2177 17.9999 15.6044 17.9999 15.9999C17.9999 16.5304 17.7892 17.0391 17.4141 17.4141C17.0391 17.7892 16.5304 17.9999 15.9999 17.9999Z" fill="#1D1D1B"/>
</svg>
