<svg width="32" height="32" viewBox="0 0 32 32" fill="none" xmlns="http://www.w3.org/2000/svg">
<path d="M16 14.6667C17.0549 14.6667 18.086 14.3539 18.9631 13.7678C19.8401 13.1818 20.5237 12.3489 20.9274 11.3743C21.331 10.3998 21.4367 9.32742 21.2309 8.29285C21.0251 7.25829 20.5171 6.30798 19.7713 5.5621C19.0254 4.81622 18.0751 4.30827 17.0405 4.10248C16.0059 3.89669 14.9336 4.00231 13.959 4.40598C12.9845 4.80965 12.1516 5.49323 11.5655 6.37029C10.9795 7.24736 10.6667 8.2785 10.6667 9.33334C10.6667 10.7478 11.2286 12.1044 12.2288 13.1046C13.229 14.1048 14.5855 14.6667 16 14.6667ZM16 6.66667C16.5274 6.66667 17.043 6.82307 17.4815 7.11608C17.9201 7.4091 18.2619 7.82558 18.4637 8.31285C18.6655 8.80012 18.7183 9.33629 18.6154 9.85358C18.5126 10.3709 18.2586 10.846 17.8856 11.219C17.5127 11.5919 17.0375 11.8459 16.5203 11.9488C16.003 12.0517 15.4668 11.9988 14.9795 11.797C14.4923 11.5952 14.0758 11.2534 13.7828 10.8149C13.4898 10.3763 13.3334 9.86075 13.3334 9.33334C13.3334 8.62609 13.6143 7.94781 14.1144 7.44772C14.6145 6.94762 15.2928 6.66667 16 6.66667ZM16 17.3333C13.5247 17.3333 11.1507 18.3167 9.40036 20.067C7.65002 21.8173 6.66669 24.1913 6.66669 26.6667C6.66669 27.0203 6.80716 27.3594 7.05721 27.6095C7.30726 27.8595 7.6464 28 8.00002 28C8.35364 28 8.69278 27.8595 8.94283 27.6095C9.19288 27.3594 9.33335 27.0203 9.33335 26.6667C9.33335 24.8986 10.0357 23.2029 11.286 21.9526C12.5362 20.7024 14.2319 20 16 20C17.7681 20 19.4638 20.7024 20.7141 21.9526C21.9643 23.2029 22.6667 24.8986 22.6667 26.6667C22.6667 27.0203 22.8072 27.3594 23.0572 27.6095C23.3073 27.8595 23.6464 28 24 28C24.3536 28 24.6928 27.8595 24.9428 27.6095C25.1929 27.3594 25.3334 27.0203 25.3334 26.6667C25.3334 24.1913 24.35 21.8173 22.5997 20.067C20.8493 18.3167 18.4754 17.3333 16 17.3333Z" fill="black"/>
</svg>
