<svg width="32" height="32" viewBox="0 0 32 32" fill="none" xmlns="http://www.w3.org/2000/svg">
<path d="M28.1065 9.33338C27.8761 8.93421 27.5462 8.60156 27.149 8.36788C26.7517 8.1342 26.3007 8.00747 25.8398 8.00005H8.77317L7.99984 4.98672C7.9217 4.69583 7.74739 4.43997 7.50527 4.26081C7.26316 4.08165 6.96752 3.98974 6.6665 4.00005H3.99984C3.64622 4.00005 3.30708 4.14053 3.05703 4.39057C2.80698 4.64062 2.6665 4.97976 2.6665 5.33338C2.6665 5.687 2.80698 6.02614 3.05703 6.27619C3.30708 6.52624 3.64622 6.66672 3.99984 6.66672H5.65317L9.33317 20.3467C9.4113 20.6376 9.58562 20.8935 9.82773 21.0726C10.0698 21.2518 10.3655 21.3437 10.6665 21.3334H22.6665C22.9127 21.3326 23.1539 21.2637 23.3634 21.1343C23.5728 21.0048 23.7424 20.8199 23.8532 20.6L28.2265 11.8534C28.4161 11.4561 28.5043 11.018 28.4834 10.5783C28.4624 10.1386 28.333 9.71089 28.1065 9.33338ZM21.8398 18.6667H11.6798L9.5065 10.6667H25.8398L21.8398 18.6667Z" fill="#1D1D1B"/>
<path d="M10 28C11.1046 28 12 27.1046 12 26C12 24.8954 11.1046 24 10 24C8.89543 24 8 24.8954 8 26C8 27.1046 8.89543 28 10 28Z" fill="#1D1D1B"/>
<path d="M23.333 28C24.4376 28 25.333 27.1046 25.333 26C25.333 24.8954 24.4376 24 23.333 24C22.2284 24 21.333 24.8954 21.333 26C21.333 27.1046 22.2284 28 23.333 28Z" fill="#1D1D1B"/>
</svg>
